<?xml version="1.0" standalone="no"?>
<!DOCTYPE svg PUBLIC "-//W3C//DTD SVG 20010904//EN"
 "http://www.w3.org/TR/2001/REC-SVG-20010904/DTD/svg10.dtd">
<svg version="1.0" xmlns="http://www.w3.org/2000/svg"
 width="128.000000pt" height="128.000000pt" viewBox="0 0 128.000000 128.000000"
 preserveAspectRatio="xMidYMid meet">

<g transform="translate(0.000000,128.000000) scale(0.100000,-0.100000)"
fill="#000000" stroke="none">
<path d="M550 1230 c-82 -10 -177 -49 -257 -106 -156 -111 -245 -287 -244
-483 1 -295 203 -536 494 -587 296 -53 584 131 673 431 12 41 18 91 17 160 0
124 -32 228 -100 328 -132 195 -342 288 -583 257z m242 -56 c60 -18 149 -63
193 -99 27 -23 28 -26 14 -41 -15 -14 -21 -13 -68 21 -164 118 -392 120 -572
4 -57 -37 -63 -39 -78 -24 -15 15 -14 18 14 41 47 39 164 93 235 109 75 17
182 12 262 -11z m-538 -186 c7 -12 3 -24 -16 -47 -15 -17 -37 -54 -51 -83 -75
-160 -59 -353 40 -501 34 -51 36 -74 5 -85 -15 -5 -86 105 -113 177 -27 71
-37 229 -19 309 16 73 50 150 91 207 33 47 45 51 63 23z m828 -10 c35 -46 73
-123 92 -188 20 -65 22 -205 5 -276 -14 -59 -70 -177 -104 -219 -23 -28 -26
-29 -41 -13 -15 15 -14 19 13 60 50 71 71 120 88 203 27 132 1 264 -76 379
-31 46 -37 62 -28 72 17 20 24 18 51 -18z m-739 -312 l72 -120 5 139 c7 198
24 177 28 -32 1 -92 0 -174 -3 -181 -9 -24 -28 1 -112 141 l-78 132 -5 -140
c-7 -198 -24 -177 -28 32 -1 92 0 174 3 183 9 21 30 -7 118 -154z m197 73 c0
-73 14 -99 52 -99 43 0 58 27 58 106 0 75 9 95 30 69 8 -10 11 -39 8 -84 -3
-57 -8 -75 -28 -96 -13 -14 -29 -25 -37 -25 -9 0 -13 -18 -13 -69 0 -69 -13
-98 -31 -70 -5 8 -9 41 -9 75 0 55 -2 62 -25 72 -34 15 -45 49 -45 131 0 73 6
87 27 70 8 -8 13 -35 13 -80z m443 77 c38 -16 71 -51 62 -65 -4 -7 -21 -1 -46
16 -136 90 -297 -57 -217 -198 23 -41 84 -79 126 -79 28 0 91 26 114 46 22 21
42 10 28 -16 -26 -48 -146 -75 -213 -46 -57 23 -117 111 -117 171 0 59 59 147
115 171 39 17 108 17 148 0z m-653 -571 c7 -8 35 -28 64 -44 161 -92 365 -84
526 20 58 37 64 39 79 24 14 -14 13 -18 -14 -40 -163 -133 -416 -155 -605 -54
-30 17 -68 41 -83 55 -24 20 -27 27 -17 39 16 19 34 19 50 0z"/>
</g>
</svg>
